# xmcd
#
# Track frame offsets:
# 150
# 14628
# 41128
# 53920
# 71378
# 82988
# 106708
# 121405
# 150195
# 165593
# 176810
# 191715
# 205123
# 223663
#
# Disc length: 3244 seconds
#
# Revision: 1
# Processed by: cddbd v1.5.1PL0 Copyright (c) Steve Scherf et al.
# Submitted via: Easy CD Ripper v2.27
#
DISCID=b90caa0e
DTITLE=中國之旅 - vol.2
DYEAR=1990
DGENRE=Blues
TTITLE0=一條橋
TTITLE1=昭君怨
TTITLE2=嘆十聲
TTITLE3=情人橋
TTITLE4=四季歌
TTITLE5=一朵小花
TTITLE6=四季相思
TTITLE7=秋水伊人
TTITLE8=天仙配
TTITLE9=山前山後百花開
TTITLE10=天涯歌女
TTITLE11=送郎
TTITLE12=小河邊的蘭花花
TTITLE13=月圓花好
EXTD=
EXTT0=
EXTT1=
EXTT2=
EXTT3=
EXTT4=
EXTT5=
EXTT6=
EXTT7=
EXTT8=
EXTT9=
EXTT10=
EXTT11=
EXTT12=
EXTT13=
PLAYORDER=
